<?xml version="1.0" encoding="utf-8"?>
<svg xmlns="http://www.w3.org/2000/svg" height="1292" viewBox="0 0 1820 1292" width="1820">
<path d="M815.5 42.66 c-101.85 8.29 -183.85 38.51 -261.5 96.37 -97.5 72.65 -162.3&#xA;169.08 -190.53 283.55 l-2.71 11 -12.93 3.28 c-55.42 14.06 -104.22 38.42&#xA;-150.33 75.04 -15.22 12.09 -47.06 43.74 -60.83 60.46 -52.23 63.46 -81.79&#xA;131.27 -92.26 211.65 -2.18 16.78 -3.06 67.4 -1.49 86.32 7.17 86.59 37.09&#xA;159.83 92.6 226.68 10.18 12.26 37.03 39.63 50.48 51.46 58.09 51.09 125.38&#xA;83.21 201.07 95.99 17.8 3.01 17.81 4.42 79.85 5.04 62.04 .62 186.12 .44&#xA;452.08 .27 l486.5 -.31 15 -2.19 c60.24 -8.81 111.86 -27.11 159.84 -56.67&#xA;68.83 -42.41 120.86 -99.66 156.32 -172.04 20.14 -41.1 32.58 -83.53 39.01&#xA;-133.04 2.58 -19.82 2.59 -80.9 .03 -100 -9.15 -68.2 -30.58 -125.18 -68.25&#xA;-181.5 -63.5 -94.94 -166.05 -158.99 -281.75 -175.98 -19.18 -2.82 -33.85&#xA;-3.89 -63.78 -4.65 l-26.58 -.68 -3.29 -12.6 c-15.75 -60.21 -43.5 -118.33&#xA;-80.07 -167.69 -19.14 -25.84 -52.87 -61.48 -77.95 -82.37 -83.36 -69.44&#xA;-173.75 -107.38 -277.68 -116.55 -15.08 -1.33 -68.03 -1.88 -80.84 -.83z&#xA;m370.07 214.09 c-.35 .96 -93.89 202.56 -207.86 447.99 l-207.21 446.24&#xA;-54.83 .01 c-31.26 .01 -54.69 -.36 -54.5 -.87 .18 -.49 93.24 -202.09 206.79&#xA;-448 l206.46 -447.12 55.9 0 c52.82 0 55.87 .1 55.26 1.75z m-493.07 21.67&#xA;c50.32 9.19 83.53 32.26 108.14 75.11 22.78 39.67 34.36 90.42 34.34 150.47&#xA;-.02 54.17 -8.91 98.84 -27.12 136.14 -28.31 58.01 -70.22 86.06 -136.03&#xA;91.02 -57.62 4.34 -107.63 -13.4 -138.55 -49.16 -25.68 -29.7 -42.76 -72.93&#xA;-49.99 -126.5 -2.59 -19.21 -2.58 -83.12 .02 -103 11.9 -91.07 50.45 -148.05&#xA;113.89 -168.36 8.85 -2.83 26.2 -6.42 36.28 -7.5 9.74 -1.04 50.24 .18 59&#xA;1.78z m530.29 396.64 c67.85 7.39 112.23 44.65 136.57 114.65 11.03 31.74&#xA;16.14 67.13 16.14 111.79 0 60.22 -9.06 103.7 -30.11 144.5 -22.73 44.05&#xA;-57.99 70.9 -105.02 79.98 -41.7 8.05 -87.77 3.33 -120.95 -12.39 -46.39&#xA;-21.98 -79.25 -71.73 -92.82 -140.59 -4.39 -22.24 -5.77 -36.31 -6.3 -64&#xA;-1.26 -65.57 11.04 -119.78 36.47 -160.72 28.04 -45.15 63.6 -66.83 120.74&#xA;-73.62 7.01 -.83 36.34 -.57 45.29 .4z M649.27 381.05 c-15.11 2.98 -21.62&#xA;10.03 -29.49 31.95 -2.47 6.88 -4.78 14.08 -5.13 16 -2.07 11.24 -3.65 43.63&#xA;-3.64 74.98 .01 48.33 2.33 72.75 8.57 90.04 6.63 18.37 10.68 23.98 20.66&#xA;28.59 5.67 2.62 7.26 2.89 16.76 2.86 13.17 -.04 19.79 -2.36 26.81 -9.38&#xA;8.89 -8.89 12.62 -19.27 16.92 -47.09 2.34 -15.14 2.59 -19.87 3 -57.5 .3&#xA;-27.06 .05 -45.42 -.72 -54 -1.41 -15.6 -5.4 -40.08 -7.66 -47 -5.74 -17.59&#xA;-15.66 -26.88 -31.44 -29.44 -7.25 -1.18 -8.7 -1.18 -14.64 -0z M1191.29&#xA;779.09 c-15.6 1.97 -26.07 11.07 -31.85 27.7 -2.71 7.78 -6.73 31.86 -8.39&#xA;50.22 -1.33 14.7 -1.34 73.95 -.02 89 1.43 16.21 4.64 37.18 7.04 45.96 4.47&#xA;16.34 13.49 27.28 25.59 31.01 8.42 2.6 12.72 2.53 24.17 -.41 10.27 -2.64&#xA;10.92 -3.07 18.6 -12.52 7.89 -9.69 12.82 -22.32 15.73 -40.27 2.22 -13.67&#xA;2.32 -16.58 2.32 -68.78 0 -66.64 -.27 -69.65 -8.15 -89.45 -3.05 -7.67 -6.58&#xA;-15.55 -7.83 -17.5 -5.15 -8.02 -13.33 -13.31 -22.54 -14.57 -2.45 -.33 -5.36&#xA;-.74 -6.46 -.89 -1.1 -.16 -4.79 .07 -8.21 .5z" fill="#ffffff" fill-rule="evenodd" stroke="#ffffff" stroke-linejoin="round" stroke-width="0.80"/>
</svg>